<mxfile host="app.diagrams.net" agent="Mozilla/5.0 (X11; Linux x86_64; rv:135.0) Gecko/20100101 Firefox/135.0" version="26.0.16">
  <diagram name="Page-1" id="QqEOlD9sZQYdNdjxo5Bj">
    <mxGraphModel dx="1176" dy="727" grid="1" gridSize="10" guides="1" tooltips="1" connect="1" arrows="1" fold="1" page="1" pageScale="1" pageWidth="1100" pageHeight="1700" math="0" shadow="0">
      <root>
        <mxCell id="0" />
        <mxCell id="1" parent="0" />
        <mxCell id="68qyPcaZbatwnOJ6E5eS-4" value="" style="edgeStyle=orthogonalEdgeStyle;rounded=0;orthogonalLoop=1;jettySize=auto;html=1;" edge="1" parent="1" source="68qyPcaZbatwnOJ6E5eS-1" target="68qyPcaZbatwnOJ6E5eS-3">
          <mxGeometry relative="1" as="geometry" />
        </mxCell>
        <mxCell id="68qyPcaZbatwnOJ6E5eS-1" value="&lt;div&gt;Slave&lt;/div&gt;&lt;div&gt;Setup&lt;/div&gt;&lt;b&gt;Start&lt;/b&gt;" style="ellipse;whiteSpace=wrap;html=1;" vertex="1" parent="1">
          <mxGeometry x="140" y="160" width="120" height="80" as="geometry" />
        </mxCell>
        <mxCell id="68qyPcaZbatwnOJ6E5eS-50" style="edgeStyle=orthogonalEdgeStyle;rounded=0;orthogonalLoop=1;jettySize=auto;html=1;exitX=0.5;exitY=1;exitDx=0;exitDy=0;entryX=0.5;entryY=0;entryDx=0;entryDy=0;" edge="1" parent="1" source="68qyPcaZbatwnOJ6E5eS-2" target="68qyPcaZbatwnOJ6E5eS-49">
          <mxGeometry relative="1" as="geometry" />
        </mxCell>
        <mxCell id="68qyPcaZbatwnOJ6E5eS-2" value="&lt;div&gt;Bridge&lt;/div&gt;&lt;div&gt;Message Receive&lt;/div&gt;&lt;div&gt;Thread&lt;/div&gt;&lt;div&gt;&lt;b&gt;Start&lt;/b&gt;&lt;/div&gt;" style="ellipse;whiteSpace=wrap;html=1;" vertex="1" parent="1">
          <mxGeometry x="420" y="160" width="120" height="80" as="geometry" />
        </mxCell>
        <mxCell id="68qyPcaZbatwnOJ6E5eS-6" value="" style="edgeStyle=orthogonalEdgeStyle;rounded=0;orthogonalLoop=1;jettySize=auto;html=1;" edge="1" parent="1" source="68qyPcaZbatwnOJ6E5eS-3" target="68qyPcaZbatwnOJ6E5eS-5">
          <mxGeometry relative="1" as="geometry" />
        </mxCell>
        <mxCell id="68qyPcaZbatwnOJ6E5eS-3" value="&lt;div&gt;ESP-NOW&lt;/div&gt;&lt;div&gt;Initialization&lt;/div&gt;" style="whiteSpace=wrap;html=1;" vertex="1" parent="1">
          <mxGeometry x="140" y="277" width="120" height="60" as="geometry" />
        </mxCell>
        <mxCell id="68qyPcaZbatwnOJ6E5eS-9" style="edgeStyle=orthogonalEdgeStyle;rounded=0;orthogonalLoop=1;jettySize=auto;html=1;exitX=0.5;exitY=1;exitDx=0;exitDy=0;entryX=0.5;entryY=0;entryDx=0;entryDy=0;" edge="1" parent="1" source="68qyPcaZbatwnOJ6E5eS-5" target="68qyPcaZbatwnOJ6E5eS-8">
          <mxGeometry relative="1" as="geometry" />
        </mxCell>
        <mxCell id="68qyPcaZbatwnOJ6E5eS-5" value="&lt;div&gt;Send&lt;/div&gt;&lt;div&gt;Bridge Discovery&lt;/div&gt;&lt;div&gt;Broadcast&lt;/div&gt;" style="whiteSpace=wrap;html=1;" vertex="1" parent="1">
          <mxGeometry x="140" y="383" width="120" height="60" as="geometry" />
        </mxCell>
        <mxCell id="68qyPcaZbatwnOJ6E5eS-7" value="" style="shape=flexArrow;endArrow=classic;html=1;rounded=0;" edge="1" parent="1">
          <mxGeometry width="50" height="50" relative="1" as="geometry">
            <mxPoint x="280" y="370" as="sourcePoint" />
            <mxPoint x="400" y="240" as="targetPoint" />
          </mxGeometry>
        </mxCell>
        <mxCell id="68qyPcaZbatwnOJ6E5eS-70" value="ESP-NOW" style="edgeLabel;html=1;align=center;verticalAlign=middle;resizable=0;points=[];rotation=-47;" vertex="1" connectable="0" parent="68qyPcaZbatwnOJ6E5eS-7">
          <mxGeometry x="0.3014" y="2" relative="1" as="geometry">
            <mxPoint x="-27" y="6" as="offset" />
          </mxGeometry>
        </mxCell>
        <mxCell id="68qyPcaZbatwnOJ6E5eS-10" style="edgeStyle=orthogonalEdgeStyle;rounded=0;orthogonalLoop=1;jettySize=auto;html=1;exitX=0;exitY=0.5;exitDx=0;exitDy=0;entryX=0;entryY=0.5;entryDx=0;entryDy=0;" edge="1" parent="1" source="68qyPcaZbatwnOJ6E5eS-8" target="68qyPcaZbatwnOJ6E5eS-5">
          <mxGeometry relative="1" as="geometry">
            <Array as="points">
              <mxPoint x="110" y="520" />
              <mxPoint x="110" y="413" />
            </Array>
          </mxGeometry>
        </mxCell>
        <mxCell id="68qyPcaZbatwnOJ6E5eS-11" value="Timeout" style="edgeLabel;html=1;align=left;verticalAlign=middle;resizable=0;points=[];labelPosition=right;verticalLabelPosition=middle;" vertex="1" connectable="0" parent="68qyPcaZbatwnOJ6E5eS-10">
          <mxGeometry relative="1" as="geometry">
            <mxPoint as="offset" />
          </mxGeometry>
        </mxCell>
        <mxCell id="68qyPcaZbatwnOJ6E5eS-36" style="edgeStyle=orthogonalEdgeStyle;rounded=0;orthogonalLoop=1;jettySize=auto;html=1;exitX=0.5;exitY=1;exitDx=0;exitDy=0;entryX=0.5;entryY=0;entryDx=0;entryDy=0;" edge="1" parent="1" source="68qyPcaZbatwnOJ6E5eS-8" target="68qyPcaZbatwnOJ6E5eS-35">
          <mxGeometry relative="1" as="geometry" />
        </mxCell>
        <mxCell id="68qyPcaZbatwnOJ6E5eS-60" value="Address exists" style="edgeLabel;html=1;align=right;verticalAlign=middle;resizable=0;points=[];labelPosition=left;verticalLabelPosition=middle;" vertex="1" connectable="0" parent="68qyPcaZbatwnOJ6E5eS-36">
          <mxGeometry relative="1" as="geometry">
            <mxPoint x="-4" as="offset" />
          </mxGeometry>
        </mxCell>
        <mxCell id="68qyPcaZbatwnOJ6E5eS-8" value="&lt;div&gt;Await&lt;/div&gt;&lt;div&gt;Address&lt;/div&gt;" style="shape=delay;whiteSpace=wrap;html=1;" vertex="1" parent="1">
          <mxGeometry x="160" y="500" width="80" height="40" as="geometry" />
        </mxCell>
        <mxCell id="68qyPcaZbatwnOJ6E5eS-19" value="" style="edgeStyle=orthogonalEdgeStyle;rounded=0;orthogonalLoop=1;jettySize=auto;html=1;" edge="1" parent="1" source="68qyPcaZbatwnOJ6E5eS-16" target="68qyPcaZbatwnOJ6E5eS-18">
          <mxGeometry relative="1" as="geometry" />
        </mxCell>
        <mxCell id="68qyPcaZbatwnOJ6E5eS-16" value="&lt;div&gt;Add Slave&lt;/div&gt;&lt;div&gt;to Slave List&lt;/div&gt;" style="whiteSpace=wrap;html=1;" vertex="1" parent="1">
          <mxGeometry x="420" y="646" width="120" height="60" as="geometry" />
        </mxCell>
        <mxCell id="68qyPcaZbatwnOJ6E5eS-21" style="edgeStyle=orthogonalEdgeStyle;rounded=0;orthogonalLoop=1;jettySize=auto;html=1;exitX=0.5;exitY=1;exitDx=0;exitDy=0;" edge="1" parent="1" source="68qyPcaZbatwnOJ6E5eS-18" target="68qyPcaZbatwnOJ6E5eS-20">
          <mxGeometry relative="1" as="geometry" />
        </mxCell>
        <mxCell id="68qyPcaZbatwnOJ6E5eS-18" value="&lt;div&gt;Send Discovery Acknowledgement&lt;/div&gt;" style="whiteSpace=wrap;html=1;" vertex="1" parent="1">
          <mxGeometry x="420" y="758" width="120" height="60" as="geometry" />
        </mxCell>
        <mxCell id="68qyPcaZbatwnOJ6E5eS-20" value="&lt;div&gt;Bridge&lt;/div&gt;&lt;div&gt;Message Receive&lt;/div&gt;&lt;div&gt;Thread&lt;/div&gt;&lt;div&gt;&lt;b&gt;End&lt;/b&gt;&lt;/div&gt;" style="ellipse;whiteSpace=wrap;html=1;" vertex="1" parent="1">
          <mxGeometry x="420" y="860" width="120" height="80" as="geometry" />
        </mxCell>
        <mxCell id="68qyPcaZbatwnOJ6E5eS-29" style="edgeStyle=orthogonalEdgeStyle;rounded=0;orthogonalLoop=1;jettySize=auto;html=1;exitX=0.5;exitY=1;exitDx=0;exitDy=0;entryX=0.5;entryY=0;entryDx=0;entryDy=0;" edge="1" parent="1" source="68qyPcaZbatwnOJ6E5eS-25" target="68qyPcaZbatwnOJ6E5eS-16">
          <mxGeometry relative="1" as="geometry" />
        </mxCell>
        <mxCell id="68qyPcaZbatwnOJ6E5eS-30" value="Yes" style="edgeLabel;html=1;align=left;verticalAlign=middle;resizable=0;points=[];labelPosition=right;verticalLabelPosition=middle;" vertex="1" connectable="0" parent="68qyPcaZbatwnOJ6E5eS-29">
          <mxGeometry relative="1" as="geometry">
            <mxPoint as="offset" />
          </mxGeometry>
        </mxCell>
        <mxCell id="68qyPcaZbatwnOJ6E5eS-33" style="edgeStyle=orthogonalEdgeStyle;rounded=0;orthogonalLoop=1;jettySize=auto;html=1;exitX=0;exitY=0.5;exitDx=0;exitDy=0;entryX=0;entryY=0.5;entryDx=0;entryDy=0;" edge="1" parent="1" source="68qyPcaZbatwnOJ6E5eS-25" target="68qyPcaZbatwnOJ6E5eS-20">
          <mxGeometry relative="1" as="geometry">
            <Array as="points">
              <mxPoint x="370" y="564" />
              <mxPoint x="370" y="900" />
            </Array>
          </mxGeometry>
        </mxCell>
        <mxCell id="68qyPcaZbatwnOJ6E5eS-25" value="&lt;div&gt;Message&lt;/div&gt;&lt;div&gt;contains Discovery&lt;/div&gt;&lt;div&gt;Request&lt;/div&gt;" style="rhombus;whiteSpace=wrap;html=1;" vertex="1" parent="1">
          <mxGeometry x="405" y="519" width="150" height="90" as="geometry" />
        </mxCell>
        <mxCell id="68qyPcaZbatwnOJ6E5eS-28" style="edgeStyle=orthogonalEdgeStyle;rounded=0;orthogonalLoop=1;jettySize=auto;html=1;exitX=0.5;exitY=1;exitDx=0;exitDy=0;entryX=0.5;entryY=0;entryDx=0;entryDy=0;" edge="1" parent="1" source="68qyPcaZbatwnOJ6E5eS-26" target="68qyPcaZbatwnOJ6E5eS-25">
          <mxGeometry relative="1" as="geometry" />
        </mxCell>
        <mxCell id="68qyPcaZbatwnOJ6E5eS-31" value="Yes" style="edgeLabel;html=1;align=left;verticalAlign=middle;resizable=0;points=[];labelPosition=right;verticalLabelPosition=middle;" vertex="1" connectable="0" parent="68qyPcaZbatwnOJ6E5eS-28">
          <mxGeometry relative="1" as="geometry">
            <mxPoint as="offset" />
          </mxGeometry>
        </mxCell>
        <mxCell id="68qyPcaZbatwnOJ6E5eS-32" style="edgeStyle=orthogonalEdgeStyle;rounded=0;orthogonalLoop=1;jettySize=auto;html=1;exitX=0;exitY=0.5;exitDx=0;exitDy=0;entryX=0;entryY=0.5;entryDx=0;entryDy=0;" edge="1" parent="1" source="68qyPcaZbatwnOJ6E5eS-26" target="68qyPcaZbatwnOJ6E5eS-20">
          <mxGeometry relative="1" as="geometry">
            <Array as="points">
              <mxPoint x="370" y="438" />
              <mxPoint x="370" y="900" />
            </Array>
          </mxGeometry>
        </mxCell>
        <mxCell id="68qyPcaZbatwnOJ6E5eS-34" value="No" style="edgeLabel;html=1;align=left;verticalAlign=middle;resizable=0;points=[];labelPosition=right;verticalLabelPosition=middle;" vertex="1" connectable="0" parent="68qyPcaZbatwnOJ6E5eS-32">
          <mxGeometry relative="1" as="geometry">
            <mxPoint as="offset" />
          </mxGeometry>
        </mxCell>
        <mxCell id="68qyPcaZbatwnOJ6E5eS-26" value="&lt;div&gt;Comes from&lt;/div&gt;&lt;div&gt;Slave&lt;/div&gt;" style="rhombus;whiteSpace=wrap;html=1;" vertex="1" parent="1">
          <mxGeometry x="405" y="393" width="150" height="90" as="geometry" />
        </mxCell>
        <mxCell id="68qyPcaZbatwnOJ6E5eS-38" style="edgeStyle=orthogonalEdgeStyle;rounded=0;orthogonalLoop=1;jettySize=auto;html=1;exitX=0.5;exitY=1;exitDx=0;exitDy=0;" edge="1" parent="1" source="68qyPcaZbatwnOJ6E5eS-35" target="68qyPcaZbatwnOJ6E5eS-37">
          <mxGeometry relative="1" as="geometry" />
        </mxCell>
        <mxCell id="68qyPcaZbatwnOJ6E5eS-35" value="&lt;div&gt;Other&lt;/div&gt;&lt;div&gt;Setup-Processes&lt;/div&gt;" style="whiteSpace=wrap;html=1;" vertex="1" parent="1">
          <mxGeometry x="140" y="600" width="120" height="60" as="geometry" />
        </mxCell>
        <mxCell id="68qyPcaZbatwnOJ6E5eS-37" value="&lt;div&gt;Slave&lt;/div&gt;&lt;div&gt;Setup&lt;/div&gt;&lt;b&gt;End&lt;/b&gt;" style="ellipse;whiteSpace=wrap;html=1;" vertex="1" parent="1">
          <mxGeometry x="140" y="695" width="120" height="80" as="geometry" />
        </mxCell>
        <mxCell id="68qyPcaZbatwnOJ6E5eS-46" style="edgeStyle=orthogonalEdgeStyle;rounded=0;orthogonalLoop=1;jettySize=auto;html=1;exitX=0.5;exitY=1;exitDx=0;exitDy=0;entryX=0.5;entryY=0;entryDx=0;entryDy=0;" edge="1" parent="1" source="68qyPcaZbatwnOJ6E5eS-39" target="68qyPcaZbatwnOJ6E5eS-45">
          <mxGeometry relative="1" as="geometry" />
        </mxCell>
        <mxCell id="68qyPcaZbatwnOJ6E5eS-39" value="&lt;div&gt;Slave&lt;/div&gt;&lt;div&gt;Message Receive&lt;/div&gt;&lt;div&gt;Thread&lt;/div&gt;&lt;div&gt;&lt;b&gt;Start&lt;/b&gt;&lt;/div&gt;" style="ellipse;whiteSpace=wrap;html=1;" vertex="1" parent="1">
          <mxGeometry x="700" y="160" width="120" height="80" as="geometry" />
        </mxCell>
        <mxCell id="68qyPcaZbatwnOJ6E5eS-40" value="" style="shape=flexArrow;endArrow=classic;html=1;rounded=0;" edge="1" parent="1">
          <mxGeometry width="50" height="50" relative="1" as="geometry">
            <mxPoint x="550" y="750" as="sourcePoint" />
            <mxPoint x="690" y="250" as="targetPoint" />
          </mxGeometry>
        </mxCell>
        <mxCell id="68qyPcaZbatwnOJ6E5eS-72" value="ESP-NOW" style="edgeLabel;html=1;align=center;verticalAlign=middle;resizable=0;points=[];rotation=-73;" vertex="1" connectable="0" parent="68qyPcaZbatwnOJ6E5eS-40">
          <mxGeometry x="0.1428" y="1" relative="1" as="geometry">
            <mxPoint x="-19" y="-4" as="offset" />
          </mxGeometry>
        </mxCell>
        <mxCell id="68qyPcaZbatwnOJ6E5eS-48" value="" style="edgeStyle=orthogonalEdgeStyle;rounded=0;orthogonalLoop=1;jettySize=auto;html=1;" edge="1" parent="1" source="68qyPcaZbatwnOJ6E5eS-45" target="68qyPcaZbatwnOJ6E5eS-47">
          <mxGeometry relative="1" as="geometry" />
        </mxCell>
        <mxCell id="68qyPcaZbatwnOJ6E5eS-74" value="Yes" style="edgeLabel;html=1;align=left;verticalAlign=middle;resizable=0;points=[];labelPosition=right;verticalLabelPosition=middle;" vertex="1" connectable="0" parent="68qyPcaZbatwnOJ6E5eS-48">
          <mxGeometry relative="1" as="geometry">
            <mxPoint as="offset" />
          </mxGeometry>
        </mxCell>
        <mxCell id="68qyPcaZbatwnOJ6E5eS-65" style="edgeStyle=orthogonalEdgeStyle;rounded=0;orthogonalLoop=1;jettySize=auto;html=1;exitX=1;exitY=0.5;exitDx=0;exitDy=0;entryX=1;entryY=0.5;entryDx=0;entryDy=0;" edge="1" parent="1" source="68qyPcaZbatwnOJ6E5eS-45" target="68qyPcaZbatwnOJ6E5eS-57">
          <mxGeometry relative="1" as="geometry">
            <Array as="points">
              <mxPoint x="880" y="322" />
              <mxPoint x="880" y="788" />
            </Array>
          </mxGeometry>
        </mxCell>
        <mxCell id="68qyPcaZbatwnOJ6E5eS-45" value="&lt;div&gt;Correct&lt;/div&gt;&lt;div&gt;Message Size&lt;/div&gt;" style="rhombus;whiteSpace=wrap;html=1;" vertex="1" parent="1">
          <mxGeometry x="685" y="277" width="150" height="90" as="geometry" />
        </mxCell>
        <mxCell id="68qyPcaZbatwnOJ6E5eS-55" style="edgeStyle=orthogonalEdgeStyle;rounded=0;orthogonalLoop=1;jettySize=auto;html=1;exitX=0.5;exitY=1;exitDx=0;exitDy=0;" edge="1" parent="1" source="68qyPcaZbatwnOJ6E5eS-47" target="68qyPcaZbatwnOJ6E5eS-53">
          <mxGeometry relative="1" as="geometry" />
        </mxCell>
        <mxCell id="68qyPcaZbatwnOJ6E5eS-75" value="Yes" style="edgeLabel;html=1;align=left;verticalAlign=middle;resizable=0;points=[];labelPosition=right;verticalLabelPosition=middle;" vertex="1" connectable="0" parent="68qyPcaZbatwnOJ6E5eS-55">
          <mxGeometry relative="1" as="geometry">
            <mxPoint y="-2" as="offset" />
          </mxGeometry>
        </mxCell>
        <mxCell id="68qyPcaZbatwnOJ6E5eS-66" style="edgeStyle=orthogonalEdgeStyle;rounded=0;orthogonalLoop=1;jettySize=auto;html=1;exitX=1;exitY=0.5;exitDx=0;exitDy=0;entryX=1;entryY=0.5;entryDx=0;entryDy=0;" edge="1" parent="1" source="68qyPcaZbatwnOJ6E5eS-47" target="68qyPcaZbatwnOJ6E5eS-57">
          <mxGeometry relative="1" as="geometry">
            <Array as="points">
              <mxPoint x="880" y="445" />
              <mxPoint x="880" y="788" />
            </Array>
          </mxGeometry>
        </mxCell>
        <mxCell id="68qyPcaZbatwnOJ6E5eS-47" value="&lt;div&gt;Comes from&lt;/div&gt;&lt;div&gt;Bridge&lt;/div&gt;" style="rhombus;whiteSpace=wrap;html=1;" vertex="1" parent="1">
          <mxGeometry x="685" y="400" width="150" height="90" as="geometry" />
        </mxCell>
        <mxCell id="68qyPcaZbatwnOJ6E5eS-51" style="edgeStyle=orthogonalEdgeStyle;rounded=0;orthogonalLoop=1;jettySize=auto;html=1;exitX=0.5;exitY=1;exitDx=0;exitDy=0;entryX=0.5;entryY=0;entryDx=0;entryDy=0;" edge="1" parent="1" source="68qyPcaZbatwnOJ6E5eS-49" target="68qyPcaZbatwnOJ6E5eS-26">
          <mxGeometry relative="1" as="geometry" />
        </mxCell>
        <mxCell id="68qyPcaZbatwnOJ6E5eS-73" value="Yes" style="edgeLabel;html=1;align=left;verticalAlign=middle;resizable=0;points=[];labelPosition=right;verticalLabelPosition=middle;" vertex="1" connectable="0" parent="68qyPcaZbatwnOJ6E5eS-51">
          <mxGeometry relative="1" as="geometry">
            <mxPoint as="offset" />
          </mxGeometry>
        </mxCell>
        <mxCell id="68qyPcaZbatwnOJ6E5eS-52" style="edgeStyle=orthogonalEdgeStyle;rounded=0;orthogonalLoop=1;jettySize=auto;html=1;exitX=0;exitY=0.5;exitDx=0;exitDy=0;entryX=0;entryY=0.5;entryDx=0;entryDy=0;" edge="1" parent="1" source="68qyPcaZbatwnOJ6E5eS-49" target="68qyPcaZbatwnOJ6E5eS-20">
          <mxGeometry relative="1" as="geometry">
            <Array as="points">
              <mxPoint x="370" y="307" />
              <mxPoint x="370" y="900" />
            </Array>
          </mxGeometry>
        </mxCell>
        <mxCell id="68qyPcaZbatwnOJ6E5eS-49" value="&lt;div&gt;Correct&lt;/div&gt;&lt;div&gt;Message Size&lt;/div&gt;" style="rhombus;whiteSpace=wrap;html=1;" vertex="1" parent="1">
          <mxGeometry x="405" y="262" width="150" height="90" as="geometry" />
        </mxCell>
        <mxCell id="68qyPcaZbatwnOJ6E5eS-56" style="edgeStyle=orthogonalEdgeStyle;rounded=0;orthogonalLoop=1;jettySize=auto;html=1;exitX=0.5;exitY=1;exitDx=0;exitDy=0;entryX=0.5;entryY=0;entryDx=0;entryDy=0;" edge="1" parent="1" source="68qyPcaZbatwnOJ6E5eS-53" target="68qyPcaZbatwnOJ6E5eS-54">
          <mxGeometry relative="1" as="geometry" />
        </mxCell>
        <mxCell id="68qyPcaZbatwnOJ6E5eS-76" value="Yes" style="edgeLabel;html=1;align=left;verticalAlign=middle;resizable=0;points=[];labelPosition=right;verticalLabelPosition=middle;" vertex="1" connectable="0" parent="68qyPcaZbatwnOJ6E5eS-56">
          <mxGeometry relative="1" as="geometry">
            <mxPoint as="offset" />
          </mxGeometry>
        </mxCell>
        <mxCell id="68qyPcaZbatwnOJ6E5eS-68" style="edgeStyle=orthogonalEdgeStyle;rounded=0;orthogonalLoop=1;jettySize=auto;html=1;exitX=1;exitY=0.5;exitDx=0;exitDy=0;entryX=1;entryY=0.5;entryDx=0;entryDy=0;" edge="1" parent="1" source="68qyPcaZbatwnOJ6E5eS-53" target="68qyPcaZbatwnOJ6E5eS-57">
          <mxGeometry relative="1" as="geometry">
            <Array as="points">
              <mxPoint x="880" y="570" />
              <mxPoint x="880" y="788" />
            </Array>
          </mxGeometry>
        </mxCell>
        <mxCell id="68qyPcaZbatwnOJ6E5eS-69" value="No" style="edgeLabel;html=1;align=left;verticalAlign=middle;resizable=0;points=[];labelPosition=right;verticalLabelPosition=middle;" vertex="1" connectable="0" parent="68qyPcaZbatwnOJ6E5eS-68">
          <mxGeometry relative="1" as="geometry">
            <mxPoint as="offset" />
          </mxGeometry>
        </mxCell>
        <mxCell id="68qyPcaZbatwnOJ6E5eS-53" value="&lt;div&gt;Message&lt;/div&gt;&lt;div&gt;&lt;font style=&quot;font-size: 11px;&quot;&gt;contains Discovery&lt;/font&gt;&lt;/div&gt;&lt;div&gt;&lt;font style=&quot;font-size: 11px;&quot;&gt;Acknowledgement&lt;/font&gt;&lt;/div&gt;" style="rhombus;whiteSpace=wrap;html=1;" vertex="1" parent="1">
          <mxGeometry x="672.5" y="519" width="175" height="101" as="geometry" />
        </mxCell>
        <mxCell id="68qyPcaZbatwnOJ6E5eS-58" style="edgeStyle=orthogonalEdgeStyle;rounded=0;orthogonalLoop=1;jettySize=auto;html=1;exitX=0.5;exitY=1;exitDx=0;exitDy=0;entryX=0.5;entryY=0;entryDx=0;entryDy=0;" edge="1" parent="1" source="68qyPcaZbatwnOJ6E5eS-54" target="68qyPcaZbatwnOJ6E5eS-57">
          <mxGeometry relative="1" as="geometry" />
        </mxCell>
        <mxCell id="68qyPcaZbatwnOJ6E5eS-54" value="&lt;div&gt;Add Sender&lt;/div&gt;&lt;div&gt;MAC-Adress&lt;/div&gt;&lt;div&gt;to Bridge-Address&lt;/div&gt;" style="whiteSpace=wrap;html=1;" vertex="1" parent="1">
          <mxGeometry x="700" y="659" width="120" height="60" as="geometry" />
        </mxCell>
        <mxCell id="68qyPcaZbatwnOJ6E5eS-57" value="&lt;div&gt;Slave&lt;/div&gt;&lt;div&gt;Message Receive&lt;/div&gt;&lt;div&gt;Thread&lt;/div&gt;&lt;div&gt;&lt;b&gt;End&lt;/b&gt;&lt;/div&gt;" style="ellipse;whiteSpace=wrap;html=1;" vertex="1" parent="1">
          <mxGeometry x="700" y="748" width="120" height="80" as="geometry" />
        </mxCell>
        <mxCell id="68qyPcaZbatwnOJ6E5eS-61" value="Bridge-Address" style="shape=parallelogram;perimeter=parallelogramPerimeter;whiteSpace=wrap;html=1;fixedSize=1;" vertex="1" parent="1">
          <mxGeometry x="420" y="978" width="120" height="60" as="geometry" />
        </mxCell>
        <mxCell id="68qyPcaZbatwnOJ6E5eS-63" value="" style="curved=1;endArrow=classic;html=1;rounded=0;entryX=1;entryY=0.5;entryDx=0;entryDy=0;exitX=0;exitY=0.5;exitDx=0;exitDy=0;" edge="1" parent="1" source="68qyPcaZbatwnOJ6E5eS-54" target="68qyPcaZbatwnOJ6E5eS-61">
          <mxGeometry width="50" height="50" relative="1" as="geometry">
            <mxPoint x="660" y="950" as="sourcePoint" />
            <mxPoint x="710" y="900" as="targetPoint" />
            <Array as="points">
              <mxPoint x="630" y="680" />
              <mxPoint x="640" y="930" />
              <mxPoint x="610" y="1008" />
            </Array>
          </mxGeometry>
        </mxCell>
        <mxCell id="68qyPcaZbatwnOJ6E5eS-64" value="" style="curved=1;endArrow=classic;html=1;rounded=0;entryX=1;entryY=0.5;entryDx=0;entryDy=0;exitX=0;exitY=0.5;exitDx=0;exitDy=0;" edge="1" parent="1" source="68qyPcaZbatwnOJ6E5eS-61" target="68qyPcaZbatwnOJ6E5eS-8">
          <mxGeometry width="50" height="50" relative="1" as="geometry">
            <mxPoint x="280" y="930" as="sourcePoint" />
            <mxPoint x="330" y="880" as="targetPoint" />
            <Array as="points">
              <mxPoint x="310" y="980" />
              <mxPoint x="320" y="520" />
            </Array>
          </mxGeometry>
        </mxCell>
      </root>
    </mxGraphModel>
  </diagram>
</mxfile>
